<svg xmlns="http://www.w3.org/2000/svg" xmlns:xlink="http://www.w3.org/1999/xlink" width="800" zoomAndPan="magnify" viewBox="0 0 600 149.999998" height="200" preserveAspectRatio="xMidYMid meet" version="1.0"><defs><g/></defs><g fill="#ffffff" fill-opacity="1"><g transform="translate(36.704692, 98.999996)"><g><path d="M 30.371094 -18.675781 L 30.371094 -27.980469 L 14.367188 -27.980469 L 14.367188 -37.214844 L 31.058594 -37.214844 L 31.058594 -46.515625 L 4.105469 -46.515625 L 4.105469 0 L 14.367188 0 L 14.367188 -18.675781 Z M 30.371094 -18.675781 "/></g></g></g><g fill="#ffffff" fill-opacity="1"><g transform="translate(71.179501, 98.999996)"><g><path d="M 24.421875 0 L 2.1875 0 L 2.1875 -5.890625 L 8.140625 -8.625 L 8.140625 -40.21875 L 2.1875 -42.953125 L 2.1875 -48.84375 L 24.421875 -48.84375 L 24.421875 -42.953125 L 18.46875 -40.21875 L 18.46875 -8.625 L 24.421875 -5.890625 Z M 13.484375 -63.484375 C 14.984375 -63.484375 16.28125 -63.128906 17.375 -62.421875 C 18.46875 -61.722656 19.015625 -60.414062 19.015625 -58.5 C 19.015625 -56.625 18.46875 -55.320312 17.375 -54.59375 C 16.28125 -53.863281 14.984375 -53.5 13.484375 -53.5 C 11.929688 -53.5 10.617188 -53.863281 9.546875 -54.59375 C 8.472656 -55.320312 7.9375 -56.625 7.9375 -58.5 C 7.9375 -60.414062 8.472656 -61.722656 9.546875 -62.421875 C 10.617188 -63.128906 11.929688 -63.484375 13.484375 -63.484375 Z M 13.484375 -63.484375 "/></g></g></g><g fill="#ffffff" fill-opacity="1"><g transform="translate(97.788032, 98.999996)"><g><path d="M 4.105469 0 L 31.058594 0 L 31.058594 -9.304688 L 14.367188 -9.304688 L 14.367188 -46.515625 L 4.105469 -46.515625 Z M 4.105469 0 "/></g></g></g><g fill="#ffffff" fill-opacity="1"><g transform="translate(131.236809, 98.999996)"><g><path d="M 62.113281 0 L 53.085938 -46.515625 L 40.90625 -46.515625 L 31.261719 -13.886719 L 21.546875 -46.515625 L 9.371094 -46.515625 L 0.34375 0 L 11.628906 0 L 17.101562 -32.082031 L 26.199219 0 L 36.257812 0 L 45.355469 -32.082031 L 50.828125 0 Z M 62.113281 0 "/></g></g></g><g fill="#ffffff" fill-opacity="1"><g transform="translate(193.68821, 98.999996)"><g><path d="M 37.691406 -15.800781 C 35.777344 -11.699219 31.125 -8.894531 26.335938 -8.894531 C 18.8125 -8.894531 12.792969 -15.324219 12.792969 -23.257812 C 12.792969 -31.125 18.8125 -37.625 26.335938 -37.625 C 31.058594 -37.625 35.707031 -35.023438 37.625 -30.851562 L 49.046875 -30.851562 C 45.902344 -40.359375 36.941406 -47.203125 26.335938 -47.203125 C 13.132812 -47.203125 2.394531 -36.460938 2.394531 -23.257812 C 2.394531 -10.054688 13.132812 0.683594 26.335938 0.683594 C 36.941406 0.683594 45.96875 -6.226562 49.117188 -15.800781 Z M 37.691406 -15.800781 "/></g></g></g><g fill="#ffffff" fill-opacity="1"><g transform="translate(244.511214, 98.999996)"><g><path d="M 24.421875 0 L 2.1875 0 L 2.1875 -5.890625 L 8.140625 -8.625 L 8.140625 -40.21875 L 2.1875 -42.953125 L 2.1875 -48.84375 L 24.421875 -48.84375 L 24.421875 -42.953125 L 18.46875 -40.21875 L 18.46875 -8.625 L 24.421875 -5.890625 Z M 13.484375 -63.484375 C 14.984375 -63.484375 16.28125 -63.128906 17.375 -62.421875 C 18.46875 -61.722656 19.015625 -60.414062 19.015625 -58.5 C 19.015625 -56.625 18.46875 -55.320312 17.375 -54.59375 C 16.28125 -53.863281 14.984375 -53.5 13.484375 -53.5 C 11.929688 -53.5 10.617188 -53.863281 9.546875 -54.59375 C 8.472656 -55.320312 7.9375 -56.625 7.9375 -58.5 C 7.9375 -60.414062 8.472656 -61.722656 9.546875 -62.421875 C 10.617188 -63.128906 11.929688 -63.484375 13.484375 -63.484375 Z M 13.484375 -63.484375 "/></g></g></g><g fill="#ffffff" fill-opacity="1"><g transform="translate(288.22032, 98.999996)"><g><path d="M 26.542969 -13.613281 C 26.542969 -10.535156 23.941406 -8.003906 20.863281 -8.003906 L 14.367188 -8.003906 L 14.367188 -19.222656 L 20.863281 -19.222656 C 23.941406 -19.222656 26.542969 -16.621094 26.542969 -13.613281 Z M 23.328125 -33.039062 C 23.328125 -30.097656 20.863281 -27.636719 17.921875 -27.636719 L 14.367188 -27.636719 L 14.367188 -38.445312 L 17.921875 -38.445312 C 20.863281 -38.445312 23.328125 -36.050781 23.328125 -33.039062 Z M 37.007812 -13.339844 C 37.007812 -19.632812 32.765625 -23.804688 27.566406 -25.039062 C 31.058594 -26.609375 33.109375 -30.167969 33.109375 -34.886719 C 33.109375 -41.25 28.046875 -46.515625 20.113281 -46.515625 L 4.105469 -46.515625 L 4.105469 0 L 22.917969 0 C 31.808594 0 37.007812 -5.335938 37.007812 -13.339844 Z M 37.007812 -13.339844 "/></g></g></g><g fill="#ffffff" fill-opacity="1"><g transform="translate(325.910061, 98.999996)"><g><path d="M 29.414062 -17.785156 L 17.648438 -17.785156 L 23.53125 -34.339844 Z M 46.789062 0 L 27.910156 -46.515625 L 19.222656 -46.515625 L 0.34375 0 L 11.355469 0 L 14.707031 -9.371094 L 32.425781 -9.371094 L 35.777344 0 Z M 46.789062 0 "/></g></g></g><g fill="#ffffff" fill-opacity="1"><g transform="translate(373.039323, 98.999996)"><g><path d="M 26.542969 -13.613281 C 26.542969 -10.535156 23.941406 -8.003906 20.863281 -8.003906 L 14.367188 -8.003906 L 14.367188 -19.222656 L 20.863281 -19.222656 C 23.941406 -19.222656 26.542969 -16.621094 26.542969 -13.613281 Z M 23.328125 -33.039062 C 23.328125 -30.097656 20.863281 -27.636719 17.921875 -27.636719 L 14.367188 -27.636719 L 14.367188 -38.445312 L 17.921875 -38.445312 C 20.863281 -38.445312 23.328125 -36.050781 23.328125 -33.039062 Z M 37.007812 -13.339844 C 37.007812 -19.632812 32.765625 -23.804688 27.566406 -25.039062 C 31.058594 -26.609375 33.109375 -30.167969 33.109375 -34.886719 C 33.109375 -41.25 28.046875 -46.515625 20.113281 -46.515625 L 4.105469 -46.515625 L 4.105469 0 L 22.917969 0 C 31.808594 0 37.007812 -5.335938 37.007812 -13.339844 Z M 37.007812 -13.339844 "/></g></g></g><g fill="#ffffff" fill-opacity="1"><g transform="translate(410.729041, 98.999996)"><g><path d="M 40.019531 -23.328125 C 40.019531 -16.144531 33.519531 -9.578125 26.335938 -9.578125 C 19.152344 -9.578125 12.65625 -16.144531 12.65625 -23.328125 C 12.65625 -30.507812 19.152344 -37.007812 26.335938 -37.007812 C 33.519531 -37.007812 40.019531 -30.507812 40.019531 -23.328125 Z M 50.28125 -23.257812 C 50.28125 -36.121094 39.199219 -47.203125 26.335938 -47.203125 C 13.476562 -47.203125 2.394531 -36.121094 2.394531 -23.257812 C 2.394531 -10.398438 13.476562 0.683594 26.335938 0.683594 C 39.199219 0.683594 50.28125 -10.398438 50.28125 -23.257812 Z M 50.28125 -23.257812 "/></g></g></g><g fill="#ffffff" fill-opacity="1"><g transform="translate(463.977746, 94.510427)"><g><path d="M 4.972656 0.375 C 5.535156 0.375 6.058594 0.1875 6.507812 -0.222656 C 6.957031 -0.636719 7.179688 -1.121094 7.179688 -1.71875 C 7.179688 -2.320312 6.957031 -2.804688 6.507812 -3.214844 C 6.058594 -3.628906 5.574219 -3.851562 4.972656 -3.851562 C 4.375 -3.851562 3.851562 -3.628906 3.441406 -3.214844 C 2.992188 -2.769531 2.804688 -2.28125 2.804688 -1.71875 C 2.804688 -1.121094 2.992188 -0.636719 3.441406 -0.222656 C 3.890625 0.1875 4.375 0.375 4.972656 0.375 Z M 4.972656 0.375 "/></g></g></g><g fill="#ffffff" fill-opacity="1"><g transform="translate(473.962063, 94.510427)"><g><path d="M 26.144531 -7.78125 L 23.265625 -7.78125 C 22.367188 -6.132812 21.132812 -4.789062 19.5625 -3.816406 C 17.992188 -2.804688 16.234375 -2.320312 14.363281 -2.320312 C 11.558594 -2.320312 9.164062 -3.328125 7.179688 -5.421875 C 5.238281 -7.40625 4.300781 -9.835938 4.300781 -12.679688 C 4.300781 -15.523438 5.238281 -17.953125 7.179688 -19.972656 C 8.078125 -20.90625 9.164062 -21.65625 10.398438 -22.21875 C 11.59375 -22.777344 12.792969 -23.078125 13.988281 -23.078125 C 15.148438 -23.078125 16.15625 -22.925781 17.054688 -22.664062 C 19.785156 -21.84375 21.84375 -20.199219 23.226562 -17.691406 L 26.105469 -17.691406 C 25.132812 -20.085938 23.601562 -22.03125 21.46875 -23.527344 C 19.300781 -25.023438 16.941406 -25.769531 14.363281 -25.769531 C 10.808594 -25.769531 7.816406 -24.460938 5.347656 -21.878906 C 4.1875 -20.683594 3.292969 -19.261719 2.65625 -17.691406 C 1.980469 -16.121094 1.683594 -14.4375 1.683594 -12.679688 C 1.683594 -9.089844 2.878906 -6.058594 5.347656 -3.515625 C 7.816406 -0.898438 10.808594 0.375 14.363281 0.375 C 16.941406 0.375 19.300781 -0.375 21.507812 -1.871094 C 23.636719 -3.367188 25.171875 -5.3125 26.144531 -7.78125 Z M 26.144531 -7.78125 "/></g></g></g><g fill="#ffffff" fill-opacity="1"><g transform="translate(501.222621, 94.510427)"><g><path d="M 25.210938 -12.792969 C 25.210938 -9.875 24.160156 -7.40625 22.140625 -5.386719 C 20.085938 -3.328125 17.617188 -2.320312 14.738281 -2.320312 C 11.855469 -2.320312 9.386719 -3.328125 7.367188 -5.386719 C 5.3125 -7.40625 4.300781 -9.875 4.300781 -12.792969 C 4.300781 -15.632812 5.3125 -18.101562 7.367188 -20.160156 C 9.386719 -22.179688 11.855469 -23.226562 14.738281 -23.226562 C 17.617188 -23.226562 20.085938 -22.179688 22.140625 -20.160156 C 24.160156 -18.101562 25.210938 -15.632812 25.210938 -12.792969 Z M 27.828125 -12.792969 C 27.828125 -14.585938 27.453125 -16.269531 26.78125 -17.878906 C 26.105469 -19.449219 25.171875 -20.832031 23.976562 -22.03125 C 22.777344 -23.191406 21.394531 -24.125 19.824219 -24.796875 C 18.214844 -25.472656 16.53125 -25.84375 14.738281 -25.84375 C 12.941406 -25.84375 11.222656 -25.472656 9.648438 -24.796875 C 8.078125 -24.125 6.695312 -23.191406 5.5 -22.03125 C 4.300781 -20.832031 3.367188 -19.449219 2.691406 -17.878906 C 2.019531 -16.269531 1.683594 -14.585938 1.683594 -12.792969 C 1.683594 -10.996094 2.019531 -9.277344 2.691406 -7.703125 C 3.367188 -6.097656 4.300781 -4.710938 5.5 -3.515625 C 6.695312 -2.320312 8.078125 -1.382812 9.648438 -0.710938 C 11.222656 -0.0390625 12.941406 0.300781 14.738281 0.300781 C 16.53125 0.300781 18.214844 -0.0390625 19.824219 -0.710938 C 21.394531 -1.382812 22.777344 -2.320312 23.976562 -3.515625 C 25.171875 -4.710938 26.105469 -6.097656 26.78125 -7.703125 C 27.453125 -9.277344 27.828125 -10.996094 27.828125 -12.792969 Z M 27.828125 -12.792969 "/></g></g></g><g fill="#ffffff" fill-opacity="1"><g transform="translate(530.726849, 94.510427)"><g><path d="M 26.257812 0 L 28.914062 0 L 23.003906 -27.117188 L 14.660156 -5.347656 L 6.320312 -27.117188 L 0.375 0 L 3.066406 0 L 6.996094 -18.101562 L 14.660156 1.496094 L 22.292969 -18.101562 Z M 26.257812 0 "/></g></g></g></svg>